# Blender 3.1.0
# www.blender.org
mtllib rook.mtl
g __Rook_Vert.014
v 1.246150 0.000000 1.246150
v -1.246150 0.000000 1.246150
v -1.246150 0.000000 -1.246150
v 1.246150 0.000000 -1.246150
v 1.460448 0.285032 1.460448
v -1.460448 0.285032 1.460448
v -1.460448 0.285032 -1.460448
v 1.460448 0.285032 -1.460448
v 1.109617 0.581466 1.109617
v -1.109617 0.581466 1.109617
v -1.109617 0.581466 -1.109617
v 1.109617 0.581466 -1.109617
v 1.195182 0.710680 1.195182
v -1.195182 0.710680 1.195182
v -1.195182 0.710680 -1.195182
v 1.195182 0.710680 -1.195182
v 1.000937 0.889301 1.000937
v -1.000937 0.889301 1.000937
v -1.000937 0.889301 -1.000937
v 1.000937 0.889301 -1.000937
v 0.886676 1.204736 0.886676
v -0.886676 1.204736 0.886676
v -0.886676 1.204736 -0.886676
v 0.886676 1.204736 -0.886676
v 0.734112 1.710194 0.734112
v -0.734112 1.710194 0.734112
v -0.734112 1.710194 -0.734112
v 0.734112 1.710194 -0.734112
v 0.701032 2.223252 0.701032
v -0.701032 2.223252 0.701032
v -0.701032 2.223252 -0.701032
v 0.701032 2.223252 -0.701032
v 0.701032 2.960535 0.701032
v -0.701032 2.960535 0.701032
v -0.701032 2.960535 -0.701032
v 0.701032 2.960535 -0.701032
v 0.948608 3.118886 0.948608
v -0.948608 3.118886 0.948608
v -0.948608 3.118886 -0.948608
v 0.948608 3.118886 -0.948608
v 1.024729 3.385005 1.024729
v -1.024729 3.385005 1.024729
v -1.024729 3.385005 -1.024729
v 1.024729 3.385005 -1.024729
v 1.024729 4.337312 1.024729
v -1.024729 4.337312 1.024729
v -1.024729 4.337312 -1.024729
v 1.024729 4.337312 -1.024729
v 0.886319 3.251945 0.886319
v -0.886319 3.251945 0.886319
v -0.886319 3.251945 -0.886319
v 0.886319 3.251945 -0.886319
v -0.603197 4.337312 -1.024729
v 0.603197 4.337312 -1.024729
v 0.296326 4.337312 -1.024729
v -0.296326 4.337312 -1.024729
v -0.603197 4.337312 1.024729
v -0.296326 4.337312 1.024729
v 0.296326 4.337312 1.024729
v 0.603197 4.337312 1.024729
v -0.603197 3.899064 1.024729
v -0.296326 3.899064 1.024729
v 0.296326 3.899064 1.024729
v 0.603197 3.899064 1.024729
v 0.603197 3.899064 -1.024729
v 0.296326 3.899064 -1.024729
v -0.603197 3.899064 -1.024729
v -0.296326 3.899064 -1.024729
v -1.024729 4.337312 0.603197
v -1.024729 4.337312 0.296326
v -1.024729 4.337312 -0.296326
v -1.024729 4.337312 -0.603197
v -0.603197 4.337312 0.603197
v -0.603197 4.337312 0.296326
v -0.603197 4.337312 -0.296326
v -0.603197 4.337312 -0.603197
v -0.296326 4.337312 0.603197
v -0.296326 4.337312 -0.603197
v 0.296326 4.337312 0.603197
v 0.296326 4.337312 -0.603197
v 1.024729 4.337312 0.603197
v 1.024729 4.337312 0.296326
v 1.024729 4.337312 -0.296326
v 1.024729 4.337312 -0.603197
v 0.603197 4.337312 0.603197
v 0.603197 4.337312 0.296326
v 0.603197 4.337312 -0.296326
v 0.603197 4.337312 -0.603197
v -1.024729 3.899064 -0.603197
v -1.024729 3.899064 -0.296326
v -1.024729 3.899064 0.603197
v -1.024729 3.899064 0.296326
v 1.024729 3.899064 0.603197
v 1.024729 3.899064 0.296326
v 1.024729 3.899064 -0.296326
v 1.024729 3.899064 -0.603197
v 0.296326 3.899064 0.603197
v 0.296326 3.899064 -0.603197
v 0.296326 3.899064 -0.477543
v 0.296326 3.899064 -0.296326
v 0.296326 3.899064 0.296326
v 0.603197 3.899064 0.603197
v 0.603197 3.899064 -0.296326
v 0.603197 3.899064 0.296326
v 0.603197 3.899064 0.502073
v 0.603197 3.899064 -0.603197
v -0.296326 3.899064 0.603197
v -0.296326 3.899064 -0.296326
v -0.296326 3.899064 0.296326
v -0.296326 3.899064 0.430170
v -0.296326 3.899064 -0.603197
v -0.603197 3.899064 0.603197
v -0.603197 3.899064 -0.296326
v -0.603197 3.899064 0.296326
v -0.603197 3.899064 -0.603197
v -0.603197 3.899064 -0.405640
v -0.494131 3.899064 -0.296326
v 0.359443 3.899064 -0.603197
v -0.405392 3.899064 0.296326
v 0.540080 3.899064 0.603197
v -0.511596 3.899064 -0.412962
v -0.386430 3.899064 0.422967
v 0.523990 3.899064 0.495741
v 0.377289 3.899064 -0.484015
v 0.296326 3.904171 0.296326
v 0.296326 3.904171 -0.296326
v -0.296326 3.904171 0.296326
v -0.296326 3.904171 -0.296326
vn -0.0000 -1.0000 -0.0000
vn -0.0000 1.0000 -0.0000
vn -0.0000 -0.6009 0.7993
vn -0.7993 -0.6009 -0.0000
vn -0.0000 -0.6009 -0.7993
vn 0.7993 -0.6009 -0.0000
vn -0.0000 0.7638 0.6454
vn -0.6454 0.7638 -0.0000
vn -0.0000 0.7638 -0.6454
vn 0.6454 0.7638 -0.0000
vn -0.0000 -0.5521 0.8338
vn -0.8338 -0.5521 -0.0000
vn -0.0000 -0.5521 -0.8338
vn 0.8338 -0.5521 -0.0000
vn -0.0000 0.7361 0.6769
vn -0.6769 0.7361 -0.0000
vn -0.0000 0.7361 -0.6769
vn 0.6769 0.7361 -0.0000
vn -0.0000 0.3406 0.9402
vn -0.9402 0.3406 -0.0000
vn -0.0000 0.3406 -0.9402
vn 0.9402 0.3406 -0.0000
vn -0.0000 0.2890 0.9573
vn -0.9573 0.2890 -0.0000
vn -0.0000 0.2890 -0.9573
vn 0.9573 0.2890 -0.0000
vn -0.0000 0.0643 0.9979
vn -0.9979 0.0643 -0.0000
vn -0.0000 0.0643 -0.9979
vn 0.9979 0.0643 -0.0000
vn -0.0000 -0.0000 1.0000
vn -1.0000 -0.0000 -0.0000
vn -0.0000 -0.0000 -1.0000
vn 1.0000 -0.0000 -0.0000
vn -0.0000 -0.8424 0.5388
vn -0.5388 -0.8424 -0.0000
vn -0.0000 -0.8424 -0.5388
vn 0.5388 -0.8424 -0.0000
vn -0.0000 -0.7209 0.6930
vn -0.6930 -0.7209 -0.0000
vn -0.0000 -0.7209 -0.6930
vn 0.6930 -0.7209 -0.0000
vn -0.0000 0.4240 0.9057
vn -0.9057 0.4240 -0.0000
vn -0.0000 0.4240 -0.9057
vn 0.9057 0.4240 -0.0000
vt 0.000000 0.000000
vt 0.000000 0.000000
vt 0.000000 0.000000
vt 0.000000 0.000000
vt 0.000000 0.000000
vt 0.000000 0.000000
vt 0.000000 0.000000
vt 0.000000 0.000000
vt 0.000000 0.000000
vt 0.000000 0.000000
vt 0.000000 0.000000
vt 0.000000 0.000000
vt 0.000000 0.000000
vt 0.000000 0.000000
vt 0.000000 0.000000
vt 0.000000 0.000000
vt 0.000000 0.000000
vt 0.000000 0.000000
vt 0.000000 0.000000
vt 0.000000 0.000000
vt 0.000000 0.000000
vt 0.000000 0.000000
vt 0.000000 0.000000
vt 0.000000 0.000000
vt 0.000000 0.000000
vt 0.000000 0.000000
vt 0.000000 0.000000
vt 0.000000 0.000000
vt 0.000000 0.000000
vt 0.000000 0.000000
vt 0.000000 0.000000
vt 0.000000 0.000000
vt 0.000000 0.000000
vt 0.000000 0.000000
vt 0.000000 0.000000
vt 0.000000 0.000000
vt 0.000000 0.000000
vt 0.000000 0.000000
vt 0.000000 0.000000
vt 0.000000 0.000000
vt 0.000000 0.000000
vt 0.000000 0.000000
vt 0.000000 0.000000
vt 0.000000 0.000000
vt 0.000000 0.000000
vt 0.000000 0.000000
vt 0.000000 0.000000
vt 0.000000 0.000000
vt 0.000000 0.000000
vt 0.000000 0.000000
vt 0.000000 0.000000
vt 0.000000 0.000000
vt 0.000000 0.000000
vt 0.526634 0.561605
vt 0.000000 0.000000
vt 0.526634 0.561605
vt 0.000000 0.000000
vt 0.526634 0.188395
vt 0.000000 0.000000
vt 0.526634 0.188395
vt 0.000000 0.000000
vt 0.526634 0.695067
vt 0.000000 0.000000
vt 0.526634 0.054933
vt 0.000000 0.000000
vt 0.526634 0.054933
vt 0.000000 0.000000
vt 0.526634 0.695067
vt 0.000000 0.000000
vt 0.375000 0.695067
vt 0.000000 0.000000
vt 0.375000 0.054933
vt 0.125000 0.695067
vt 0.000000 0.000000
vt 0.375000 0.054933
vt 0.125000 0.695067
vt 0.000000 0.000000
vt 0.375000 0.695067
vt 0.000000 0.000000
vt 0.375000 0.561605
vt 0.000000 0.000000
vt 0.375000 0.188395
vt 0.125000 0.561605
vt 0.000000 0.000000
vt 0.375000 0.561605
vt 0.000000 0.000000
vt 0.375000 0.188395
vt 0.125000 0.561605
vt 0.000000 0.000000
vt 0.526634 0.500000
vt 0.000000 0.000000
vt 0.526634 0.000000
vt 0.000000 0.000000
vt 0.526634 0.000000
vt 0.000000 0.000000
vt 0.526634 0.500000
vt 0.000000 0.000000
vt 0.526634 0.667616
vt 0.526634 0.500000
vt 0.000000 0.000000
vt 0.526634 0.647633
vt 0.526634 0.000000
vt 0.000000 0.000000
vt 0.526634 0.609039
vt 0.526634 0.000000
vt 0.000000 0.000000
vt 0.526634 0.589055
vt 0.526634 0.500000
vt 0.000000 0.000000
vt 0.526634 0.082384
vt 0.526634 0.500000
vt 0.000000 0.000000
vt 0.526634 0.160945
vt 0.526634 0.500000
vt 0.000000 0.000000
vt 0.526634 0.082384
vt 0.526634 0.500000
vt 0.000000 0.000000
vt 0.526634 0.160945
vt 0.526634 0.500000
vt 0.000000 0.000000
vt 0.526634 0.500000
vt 0.000000 0.000000
vt 0.526634 0.000000
vt 0.000000 0.000000
vt 0.526634 0.000000
vt 0.000000 0.000000
vt 0.526634 0.500000
vt 0.000000 0.000000
vt 0.526634 0.667616
vt 0.526634 0.500000
vt 0.000000 0.000000
vt 0.526634 0.647633
vt 0.526634 0.000000
vt 0.000000 0.000000
vt 0.526634 0.609039
vt 0.526634 0.000000
vt 0.000000 0.000000
vt 0.526634 0.589055
vt 0.526634 0.500000
vt 0.000000 0.000000
vt 0.375000 0.750000
vt 0.375000 0.561605
vt 0.000000 0.000000
vt 0.375000 0.250000
vt 0.125000 0.561605
vt 0.000000 0.000000
vt 0.375000 0.500000
vt 0.375000 0.561605
vt 0.000000 0.000000
vt 0.375000 0.000000
vt 0.125000 0.561605
vt 0.000000 0.000000
vt 0.375000 0.500000
vt 0.375000 0.695067
vt 0.000000 0.000000
vt 0.375000 0.000000
vt 0.125000 0.695067
vt 0.000000 0.000000
vt 0.375000 0.250000
vt 0.125000 0.695067
vt 0.000000 0.000000
vt 0.375000 0.750000
vt 0.375000 0.695067
vt 0.375000 0.082384
vt 0.125000 0.667616
vt 0.375000 0.500000
vt 0.375000 0.647633
vt 0.375000 0.160945
vt 0.125000 0.589055
vt 0.375000 0.750000
vt 0.375000 0.647633
vt 0.125000 0.597238
vt 0.272633 0.647633
vt 0.375000 0.140961
vt 0.125000 0.609039
vt 0.375000 0.250000
vt 0.125000 0.647633
vt 0.375000 0.102367
vt 0.375000 0.000000
vt 0.125000 0.647633
vt 0.375000 0.500000
vt 0.375000 0.667616
vt 0.375000 0.609039
vt 0.375000 0.250000
vt 0.125000 0.667616
vt 0.375000 0.647633
vt 0.375000 0.000000
vt 0.125000 0.667616
vt 0.375000 0.661031
vt 0.292616 0.667616
vt 0.375000 0.589055
vt 0.375000 0.750000
vt 0.375000 0.667616
vt 0.375000 0.082384
vt 0.125000 0.667616
vt 0.375000 0.500000
vt 0.375000 0.609039
vt 0.375000 0.140961
vt 0.375000 0.250000
vt 0.125000 0.609039
vt 0.375000 0.102367
vt 0.125000 0.647633
vt 0.375000 0.000000
vt 0.125000 0.609039
vt 0.125000 0.656349
vt 0.234039 0.609039
vt 0.375000 0.160945
vt 0.125000 0.589055
vt 0.375000 0.750000
vt 0.375000 0.609039
vt 0.375000 0.667616
vt 0.375000 0.500000
vt 0.375000 0.589055
vt 0.375000 0.609039
vt 0.375000 0.250000
vt 0.125000 0.589055
vt 0.375000 0.647633
vt 0.375000 0.000000
vt 0.125000 0.589055
vt 0.375000 0.750000
vt 0.375000 0.589055
vt 0.375000 0.601920
vt 0.214055 0.589055
vt 0.286147 0.609039
vt 0.176420 0.589055
vt 0.213853 0.647633
vt 0.323580 0.667616
vt 0.300375 0.601443
vt 0.198405 0.655880
vt 0.310472 0.660619
vt 0.190958 0.596816
vt 0.376767 0.102367
vt 0.376767 0.000000
vt 0.346824 0.721824
vt 0.376767 0.140961
vt 0.376767 0.247087
vt 0.346824 0.528176
vt 0.376767 0.102367
vt 0.376767 0.000000
vt 0.153176 0.721824
vt 0.376767 0.140961
vt 0.376767 0.247087
vt 0.153176 0.528176
s 0
g off
f 1/1/1 2/2/1 3/3/1 4/4/1
f 69/89/2 46/46/2 57/61/2 73/97/2
f 71/93/2 70/91/2 74/100/2 75/103/2
f 76/106/2 53/53/2 47/47/2 72/95/2
f 77/109/2 58/63/2 59/65/2 79/115/2
f 80/118/2 55/57/2 56/59/2 78/112/2
f 84/127/2 48/48/2 54/55/2 88/138/2
f 85/129/2 60/67/2 45/45/2 81/121/2
f 87/135/2 86/132/2 82/123/2 83/125/2
f 5/5/3 6/6/3 2/2/3 1/1/3
f 6/6/4 7/7/4 3/3/4 2/2/4
f 7/7/5 8/8/5 4/4/5 3/3/5
f 8/8/6 5/5/6 1/1/6 4/4/6
f 9/9/7 10/10/7 6/6/7 5/5/7
f 10/10/8 11/11/8 7/7/8 6/6/8
f 11/11/9 12/12/9 8/8/9 7/7/9
f 12/12/10 9/9/10 5/5/10 8/8/10
f 13/13/11 14/14/11 10/10/11 9/9/11
f 14/14/12 15/15/12 11/11/12 10/10/12
f 15/15/13 16/16/13 12/12/13 11/11/13
f 16/16/14 13/13/14 9/9/14 12/12/14
f 17/17/15 18/18/15 14/14/15 13/13/15
f 18/18/16 19/19/16 15/15/16 14/14/16
f 19/19/17 20/20/17 16/16/17 15/15/17
f 20/20/18 17/17/18 13/13/18 16/16/18
f 21/21/19 22/22/19 18/18/19 17/17/19
f 22/22/20 23/23/20 19/19/20 18/18/20
f 23/23/21 24/24/21 20/20/21 19/19/21
f 24/24/22 21/21/22 17/17/22 20/20/22
f 25/25/23 26/26/23 22/22/23 21/21/23
f 26/26/24 27/27/24 23/23/24 22/22/24
f 27/27/25 28/28/25 24/24/25 23/23/25
f 28/28/26 25/25/26 21/21/26 24/24/26
f 29/29/27 30/30/27 26/26/27 25/25/27
f 30/30/28 31/31/28 27/27/28 26/26/28
f 31/31/29 32/32/29 28/28/29 27/27/29
f 32/32/30 29/29/30 25/25/30 28/28/30
f 33/33/31 34/34/31 30/30/31 29/29/31
f 34/34/32 35/35/32 31/31/32 30/30/32
f 35/35/33 36/36/33 32/32/33 31/31/33
f 36/36/34 33/33/34 29/29/34 32/32/34
f 37/37/35 38/38/35 34/34/35 33/33/35
f 38/38/36 39/39/36 35/35/36 34/34/36
f 39/39/37 40/40/37 36/36/37 35/35/37
f 40/40/38 37/37/38 33/33/38 36/36/38
f 41/41/39 42/42/39 50/50/39 49/49/39
f 42/42/40 43/43/40 51/51/40 50/50/40
f 43/43/41 44/44/41 52/52/41 51/51/41
f 44/44/42 41/41/42 49/49/42 52/52/42
f 63/74/31 59/65/31 58/63/31 62/71/31 61/69/31 57/61/31 46/46/31 42/42/31 41/41/31 45/45/31 60/67/31 64/77/31
f 92/150/32 70/91/32 71/93/32 90/144/32 89/141/32 72/95/32 47/47/32 43/43/32 42/42/32 46/46/32 69/89/32 91/147/32
f 56/59/33 55/57/33 66/81/33 65/79/33 54/55/33 48/48/33 44/44/33 43/43/33 47/47/33 53/53/33 67/84/33 68/86/33
f 95/159/34 83/125/34 82/123/34 94/156/34 93/153/34 81/121/34 45/45/34 41/41/34 44/44/34 48/48/34 84/127/34 96/162/34
f 49/49/43 50/50/43 38/38/43 37/37/43
f 50/50/44 51/51/44 39/39/44 38/38/44
f 51/51/45 52/52/45 40/40/45 39/39/45
f 52/52/46 49/49/46 37/37/46 40/40/46
f 66/82/34 55/58/34 80/119/34 98/169/34
f 59/66/34 63/75/34 97/165/34 79/116/34
f 125/233/34 101/179/34 100/175/34 126/236/34
f 64/78/32 60/68/32 85/130/32 102/183/32
f 88/139/32 54/56/32 65/80/32 106/192/32
f 103/184/32 104/187/32 86/133/32 87/136/32
f 120/228/2 97/166/2 63/76/2 64/78/2 102/183/2
f 104/187/2 103/184/2 100/176/2 101/181/2
f 118/226/2 106/192/2 65/80/2 66/83/2 98/170/2
f 98/170/2 99/173/2 124/232/2 118/226/2
f 124/232/2 99/173/2 100/176/2 103/184/2 106/192/2 118/226/2
f 102/183/2 105/190/2 123/231/2 120/228/2
f 123/231/2 105/190/2 104/187/2 101/181/2 97/166/2 120/228/2
f 62/72/32 58/64/32 77/110/32 107/195/32
f 56/60/32 68/87/32 111/208/32 78/113/32
f 108/199/32 109/202/32 127/239/32 128/242/32
f 73/98/34 57/62/34 61/70/34 112/212/34
f 74/101/34 114/218/34 113/215/34 75/104/34
f 67/85/34 53/54/34 76/107/34 115/222/34
f 112/212/2 61/70/2 62/73/2 107/196/2
f 119/227/2 109/203/2 108/201/2 117/225/2 113/215/2 114/218/2
f 111/209/2 68/88/2 67/85/2 115/222/2
f 116/223/2 113/215/2 117/225/2 121/229/2
f 119/227/2 114/218/2 112/212/2 107/196/2 110/206/2 122/230/2
f 117/225/2 108/201/2 111/209/2 115/222/2 116/223/2 121/229/2
f 110/206/2 109/203/2 119/227/2 122/230/2
f 100/177/33 108/200/33 128/243/33 126/237/33
f 87/137/33 83/126/33 95/160/33 103/185/33
f 71/94/33 75/105/33 113/216/33 90/145/33
f 78/114/31 111/210/31 98/171/31 80/120/31
f 72/96/31 89/142/31 115/221/31 76/108/31
f 88/140/31 106/193/31 96/163/31 84/128/31
f 116/224/2 115/222/2 89/143/2 90/146/2 113/217/2
f 103/186/2 95/161/2 96/164/2 106/194/2
f 111/211/2 108/201/2 100/178/2 99/174/2 98/172/2
f 70/92/31 92/151/31 114/219/31 74/102/31
f 127/240/31 109/204/31 101/180/31 125/234/31
f 82/124/31 86/134/31 104/188/31 94/157/31
f 81/122/33 93/154/33 102/182/33 85/131/33
f 69/90/33 73/99/33 112/213/33 91/148/33
f 77/111/33 79/117/33 97/167/33 107/197/33
f 92/152/2 91/149/2 112/214/2 114/220/2
f 102/183/2 93/155/2 94/158/2 104/189/2 105/191/2
f 107/198/2 97/168/2 101/181/2 109/205/2 110/207/2
f 128/244/2 127/241/2 125/235/2 126/238/2
